PathFileType  4	(X/Y/Z) C:\Users\antoi\Documents\MyRepositories\mobilecap\ResultsAnalysis
DataRate	CameraRate	NumFrames	NumMarkers	Units	OrigDataRate	OrigDataStartFrame	OrigNumFrames
100.0	100.0	6	51	mm	100.0	315	1257
Frame#	Time	r_knee			r_shank_antsup			r_ankle			r_calc			r_5meta			r_toe			L_knee			L_shank_antsup			L_ankle			L_calc			L_5meta			L_toe			r_sh2			r_sh3			r_sh4			L_sh2			L_sh3			r_thigh1			r_thigh2			r_thigh3			r_thigh4			r_thigh5			L_thigh1			L_thigh2			L_thigh3			L_thigh4			r.ASIS			r.PSIS			L.ASIS			L.PSIS			C7			R_Shoulder			L_Shoulder			R_Sternum			L_Sternum			R_humerus			R_elbow_med			R_elbow_lat			R_forearm			R_wrist_radius			R_wrist_ulna			L_humerus			L_elbow_med			L_elbow_lat			L_forearm			L_wrist_radius			L_wrist_ulna			R_HJC			L_HJC			R_HJC_reg			L_HJC_reg			
		X1	Y1	Z1	X2	Y2	Z2	X3	Y3	Z3	X4	Y4	Z4	X5	Y5	Z5	X6	Y6	Z6	X7	Y7	Z7	X8	Y8	Z8	X9	Y9	Z9	X10	Y10	Z10	X11	Y11	Z11	X12	Y12	Z12	X13	Y13	Z13	X14	Y14	Z14	X15	Y15	Z15	X16	Y16	Z16	X17	Y17	Z17	X18	Y18	Z18	X19	Y19	Z19	X20	Y20	Z20	X21	Y21	Z21	X22	Y22	Z22	X23	Y23	Z23	X24	Y24	Z24	X25	Y25	Z25	X26	Y26	Z26	X27	Y27	Z27	X28	Y28	Z28	X29	Y29	Z29	X30	Y30	Z30	X31	Y31	Z31	X32	Y32	Z32	X33	Y33	Z33	X34	Y34	Z34	X35	Y35	Z35	X36	Y36	Z36	X37	Y37	Z37	X38	Y38	Z38	X39	Y39	Z39	X40	Y40	Z40	X41	Y41	Z41	X42	Y42	Z42	X43	Y43	Z43	X44	Y44	Z44	X45	Y45	Z45	X46	Y46	Z46	X47	Y47	Z47	X48	Y48	Z48	X49	Y49	Z49	X50	Y50	Z50	X51	Y51	Z51	

315	3.14000000	-111.58910	417.26066	-413.23277	-105.59035	346.99424	-391.65037	-264.05019	92.01882	-421.52345	-335.94170	54.90271	-460.13756	-167.75690	46.44880	-388.08314	-122.77557	64.63263	-442.82609	-171.87210	447.83451	-830.01342	-140.07290	382.61317	-862.43360	-266.38840	98.55722	-868.72501	-335.38554	59.65040	-818.26918	-180.66200	42.55200	-906.78539	-126.08741	63.79191	-856.44601	-153.72526	243.86301	-387.37358	-173.25298	378.70339	-395.54587	-230.01664	277.27246	-392.84259	-222.32677	417.63749	-850.63232	-260.89787	302.53779	-869.15506	-332.31438	627.13151	-404.21104	-229.26004	577.72535	-397.39427	-226.82233	527.64141	-353.62462	-364.70354	557.36609	-314.64417	-270.12021	492.56121	-342.06702	-364.70950	618.58415	-709.31094	-251.96943	566.06716	-764.96941	-430.00750	526.07419	-737.47432	-306.98498	475.57052	-789.65008	-346.50918	642.91129	-389.03205	-501.46755	725.53357	-464.43173	-349.71213	618.95284	-643.91332	-502.84648	711.77947	-569.63451	-126.20689	991.26204	-467.53389	-95.89973	887.43420	-332.03913	-71.67304	923.30556	-626.31642	-65.46493	853.39623	-456.39233	-60.24069	860.92748	-496.39670	-70.98403	688.75524	-221.87223	-66.96137	570.08476	-262.93799	-64.33271	609.33806	-191.31156	16.32859	681.06519	-227.69309	95.05119	745.75026	-281.44207	123.40717	711.40831	-277.99945	-41.38805	814.39808	-684.68850	-54.51227	593.03024	-677.88040	-43.78832	614.01665	-747.22362	51.90560	668.41440	-717.13612	143.30500	712.60158	-654.66390	166.14745	684.31415	-663.89526	-433.59178	597.09332	-409.43401	-433.84666	580.35648	-609.02715	-436.83004	594.83386	-418.01502	-439.02811	572.93206	-585.54926	
316	3.15000000	-111.43092	417.08778	-413.31384	-105.34791	346.72402	-391.73104	-264.07301	92.01643	-421.57664	-335.93738	54.91147	-460.19808	-167.76449	46.46308	-388.06785	-122.84294	64.62275	-442.84182	-171.85621	447.51791	-830.66663	-140.19301	382.20553	-863.04556	-266.45866	98.47521	-868.81287	-335.42173	59.52777	-818.22023	-180.74520	42.56302	-906.85065	-126.15476	63.80711	-856.48183	-153.70226	243.81883	-387.34657	-172.93090	378.67630	-395.41990	-229.87647	277.18249	-392.86535	-222.32523	417.32254	-850.96076	-260.99792	302.26821	-869.43474	-333.45423	625.55549	-405.37021	-229.84406	577.02078	-397.69950	-227.01956	527.10246	-353.75505	-365.11432	556.17055	-314.86350	-270.14709	491.67700	-342.32808	-365.39083	617.12557	-710.10533	-252.58938	565.25245	-765.56486	-430.39669	524.17587	-737.86517	-307.03068	474.54781	-790.40035	-346.07996	642.31917	-387.72069	-502.07368	723.78727	-465.06548	-350.05428	616.91387	-644.03760	-503.08164	709.79996	-570.34154	-125.07437	988.10982	-467.80069	-95.84120	884.25310	-332.44261	-70.45662	919.58447	-626.81522	-65.27756	849.87143	-456.61175	-59.92822	857.34813	-496.54438	-71.93897	685.56619	-222.17647	-68.07333	566.77164	-262.96828	-65.66338	606.06704	-191.44087	15.25212	677.81481	-227.63409	94.12403	742.31314	-281.08561	122.44073	708.08658	-277.49422	-40.46685	810.58326	-685.16294	-53.94887	589.33765	-677.97150	-43.25464	610.15398	-747.49084	52.11580	664.64885	-717.18925	143.33161	709.42402	-655.18937	166.29641	681.02707	-663.81589	-433.55935	596.13160	-409.01058	-433.65649	578.18383	-608.49173	-437.02176	592.73218	-416.99765	-438.63533	570.33810	-585.53298	
317	3.16000000	-111.19370	416.83679	-413.41049	-105.13194	346.43666	-391.82308	-264.06391	91.99728	-421.67683	-335.92843	54.92628	-460.26536	-167.75904	46.48091	-388.03670	-122.85469	64.63637	-442.85779	-171.94203	447.28817	-831.10825	-140.33010	382.02481	-863.98999	-266.49560	98.39956	-868.85666	-335.40238	59.54184	-818.23475	-180.79864	42.55220	-906.90163	-126.19141	63.80090	-856.51629	-153.64633	243.81367	-387.30939	-173.24547	378.08431	-395.88534	-229.73706	277.06353	-392.97866	-222.36876	417.21056	-851.39789	-261.09030	302.15489	-869.72070	-334.43439	624.00724	-406.43767	-230.31278	576.28334	-397.86405	-227.18780	526.59965	-353.82713	-365.45422	555.02557	-314.93616	-270.12222	490.84943	-342.40011	-366.01230	615.65367	-710.56613	-253.16816	564.47671	-766.08603	-430.76481	522.32664	-738.03016	-307.03152	473.52964	-791.01707	-344.86247	642.62115	-385.15313	-502.44351	722.03933	-465.64160	-350.26345	615.13312	-644.39734	-503.29904	707.88924	-570.78022	-125.51800	984.49991	-468.42284	-95.92259	881.23806	-332.94256	-69.35138	916.05427	-627.31118	-65.23200	846.57110	-456.79685	-59.62688	854.01263	-496.59219	-72.95293	682.65146	-222.36368	-69.21897	563.72525	-262.94215	-67.01895	603.08700	-191.61915	14.05648	674.79790	-227.58390	93.13144	739.28159	-280.68511	121.44383	705.03178	-276.97009	-39.54905	807.00619	-685.52836	-53.59470	585.86421	-678.44291	-42.81108	606.56638	-747.77163	52.43272	661.40583	-717.63977	143.30115	706.59804	-655.83933	166.33375	678.12831	-663.93240	-432.83683	595.69603	-408.06474	-432.97425	576.08115	-607.38970	-436.55659	590.44244	-414.68112	-437.94431	567.48558	-585.23981	
318	3.17000000	-110.81574	416.64336	-413.32244	-104.96983	346.24303	-391.83072	-264.04178	91.97719	-421.77099	-335.89934	54.93840	-460.31484	-167.75972	46.48187	-388.01507	-122.79983	64.64748	-442.83413	-172.04904	447.13661	-831.69566	-140.37132	382.14609	-865.14096	-266.49896	98.33351	-868.86761	-335.36030	59.59762	-818.24138	-180.82105	42.52231	-906.92479	-126.19379	63.78564	-856.54104	-153.59804	243.76035	-387.29124	-173.49970	377.62926	-396.32042	-229.62341	276.99302	-393.12589	-222.39720	417.24395	-852.07758	-261.10306	302.20255	-870.02452	-335.36392	622.44307	-407.66084	-230.72345	575.56411	-397.90837	-227.42295	525.98261	-353.88312	-365.73995	553.79525	-315.07210	-270.12644	490.07403	-342.35163	-366.65751	614.13945	-710.67954	-253.72067	563.71629	-766.51482	-431.05693	520.64416	-738.30202	-307.09813	472.39002	-791.40230	-344.46363	642.24024	-383.85383	-502.75259	720.32519	-466.22259	-350.34895	613.53281	-644.98949	-503.47465	706.07110	-571.18883	-125.19726	981.54693	-469.07358	-96.04950	878.45130	-333.51429	-68.42528	912.77044	-627.72463	-65.15949	843.56520	-456.91661	-59.35652	850.96049	-496.81584	-74.01891	679.97331	-222.41955	-70.36140	560.99106	-262.99179	-68.39435	600.46437	-191.67966	12.74286	672.02536	-227.44284	92.03451	736.57274	-280.26891	120.38034	702.32661	-276.23776	-38.64711	803.63476	-685.74778	-53.43660	582.49479	-679.18785	-42.41918	603.21342	-748.07033	52.79948	658.40593	-718.30375	143.36281	703.88746	-656.18799	166.34267	675.53179	-664.42051	-432.53308	594.76969	-407.78892	-432.57329	574.25408	-607.02926	-436.45905	588.50701	-413.58197	-437.64128	565.17099	-585.43072	
319	3.18000000	-110.40456	416.59258	-413.00470	-104.86938	346.08350	-391.69846	-264.05944	91.95389	-421.83763	-335.87856	54.94309	-460.37000	-167.77659	46.47242	-388.01469	-122.76723	64.61842	-442.78893	-172.08305	446.98951	-832.55280	-140.35740	382.26283	-866.18630	-266.49269	98.29156	-868.89144	-335.36224	59.57255	-818.17558	-180.83540	42.50222	-906.94282	-126.18285	63.78056	-856.57589	-153.57643	243.62100	-387.26529	-173.35860	377.56934	-396.34962	-229.54658	276.98636	-393.21345	-222.37680	417.25144	-852.80698	-261.04855	302.27370	-870.48090	-336.27463	620.92350	-409.02125	-231.12518	574.90456	-397.94388	-227.72831	525.29196	-353.95707	-366.05063	552.59315	-315.35386	-270.19547	489.34252	-342.31464	-367.32027	612.76279	-710.86025	-254.25819	563.02179	-767.13068	-431.29653	519.08498	-738.59934	-307.30413	471.26401	-791.65731	-345.12880	640.83363	-384.44754	-503.04911	718.73620	-466.79365	-350.38099	611.93612	-645.42268	-503.59738	704.34443	-571.78929	-124.01906	979.25924	-469.57674	-96.06484	875.96769	-334.05306	-67.65341	909.78606	-628.15276	-65.00868	840.83136	-457.19031	-59.12752	848.21583	-497.33541	-75.07361	677.52408	-222.51175	-71.49259	558.49901	-263.01373	-69.81854	598.09457	-191.61035	11.36127	669.54561	-227.19672	90.85298	734.04986	-279.81125	119.23720	699.95753	-275.33265	-37.80490	800.51331	-685.94017	-53.16942	579.45125	-679.52515	-42.05314	600.10055	-748.35901	53.14298	655.25339	-718.58878	143.44837	701.21570	-656.25530	166.40498	673.05822	-664.81615	-432.93411	593.23163	-408.31836	-432.66910	572.63359	-607.54943	-436.91029	587.14015	-414.24611	-437.80771	563.60370	-585.96843	
320	3.19000000	-110.14088	416.48177	-412.77081	-104.78860	345.89357	-391.44316	-264.12069	91.93630	-421.89283	-335.87901	54.94829	-460.40887	-167.78660	46.46564	-387.99685	-122.79285	64.58333	-442.74785	-172.06972	446.82239	-833.39487	-140.34380	382.05446	-866.90133	-266.50066	98.27050	-868.95298	-335.39220	59.49077	-818.07921	-180.85879	42.49866	-906.96364	-126.17287	63.79947	-856.65522	-153.57397	243.43557	-387.17584	-172.87799	377.84612	-395.93922	-229.50723	276.98074	-393.24982	-222.31959	417.17891	-853.43662	-261.05753	302.13701	-870.84966	-336.88179	619.67898	-410.04880	-231.42439	574.26664	-398.12650	-227.97077	524.66715	-354.04709	-366.33917	551.60447	-315.66805	-270.27931	488.63672	-342.30749	-367.95764	611.55610	-711.21755	-254.72253	562.48170	-768.10883	-431.50519	517.62367	-739.01319	-307.54275	470.36172	-791.94302	-345.79869	639.32218	-385.35798	-503.28358	717.25035	-467.37956	-350.42109	610.32539	-645.64574	-503.72689	702.67642	-572.47409	-123.59112	976.90155	-470.10306	-95.99092	873.69524	-334.58928	-66.99430	907.10114	-628.77355	-64.88035	838.35566	-457.73485	-58.94127	845.77762	-497.96354	-76.06434	675.32159	-222.68800	-72.66059	556.23873	-263.07060	-71.26600	595.87153	-191.58070	9.97780	667.33161	-226.86647	89.64855	731.70791	-279.28209	118.06449	697.78105	-274.46395	-37.11318	797.69824	-686.26093	-52.70569	576.77928	-679.46343	-41.69116	597.25638	-748.65291	53.53470	652.32387	-718.76576	143.46486	698.84210	-656.54470	166.46047	670.74564	-664.87784	-433.38274	591.70515	-408.90368	-432.83213	571.03509	-608.12529	-437.30002	585.98137	-415.10139	-438.02215	562.23510	-586.34110	
